<svg width="109" height="140" viewBox="0 0 109 140" fill="none" xmlns="http://www.w3.org/2000/svg">
<path d="M68.0463 20.3634H0C4.40827 3.16455 29.9011 -0.359914 42.0964 0.0277175H108.861C107.682 16.2247 81.16 20.3336 68.0463 20.3634Z" fill="black"/>
<path d="M40.8951 48.2834H108.861C104.458 31.0845 78.9955 27.56 66.8144 27.9476H0.128204C1.30577 44.1447 27.7968 48.2536 40.8951 48.2834Z" fill="black"/>
<path d="M68.0463 76.2028H0C4.40827 59.0039 29.9011 55.4794 42.0964 55.8671H108.861C107.682 72.0641 81.16 76.173 68.0463 76.2028Z" fill="black"/>
<path d="M5.379 90.4093C5.379 86.2278 7.84045 84.137 12.7633 84.137C15.0765 84.137 16.841 84.656 18.0569 85.6939C19.3025 86.7319 20.0587 88.3333 20.3256 90.4982L16.3221 91.0765C16.2628 89.5047 15.9217 88.2888 15.2989 87.4288C14.6762 86.5688 13.831 86.1388 12.7633 86.1388C11.6957 86.1388 10.8654 86.4205 10.2722 86.984C9.67912 87.5475 9.38256 88.3037 9.38256 89.2527C9.38256 90.172 9.64947 90.8393 10.1833 91.2544C10.7171 91.6696 11.7847 92.07 13.3861 92.4555L15.0765 92.9004C17.0042 93.3452 18.3832 94.0569 19.2135 95.0356C20.0439 95.9846 20.4591 97.4229 20.4591 99.3505C20.4591 101.249 19.8066 102.731 18.5018 103.799C17.1969 104.867 15.2989 105.4 12.8078 105.4C10.3464 105.4 8.47805 104.881 7.20285 103.843C5.92764 102.805 5.17141 101.204 4.93416 99.0391L8.93772 98.4164C9.17497 101.738 10.465 103.399 12.8078 103.399C13.9348 103.399 14.8096 103.117 15.4324 102.553C16.0848 101.99 16.411 101.234 16.411 100.285C16.411 99.3357 16.1293 98.6684 15.5658 98.2829C15.0024 97.8677 13.8754 97.4674 12.1851 97.0819L10.7171 96.7705C8.8191 96.3553 7.45492 95.6584 6.62456 94.6797C5.79419 93.7011 5.379 92.2776 5.379 90.4093ZM32.059 102.198L32.7262 104.422C31.5103 105.074 30.1462 105.4 28.6337 105.4C27.1509 105.4 26.0091 105 25.2084 104.199C24.4967 103.488 24.1408 102.138 24.1408 100.151V91.5214H21.7387V88.9858H24.1408V86.8061L29.123 85.1157V88.9858H32.1479V91.5214H29.123V101.13C29.123 102.168 29.5086 102.687 30.2796 102.687C30.7541 102.687 31.3472 102.524 32.059 102.198ZM43.3523 103.132C42.1068 104.644 40.4461 105.4 38.3701 105.4C36.9763 105.4 35.8494 105 34.9894 104.199C34.159 103.369 33.7438 102.257 33.7438 100.863C33.7438 99.4692 34.2331 98.4164 35.2118 97.7046C36.1904 96.9632 37.8512 96.3849 40.194 95.9698L42.952 95.4359V93.8345C42.952 91.9662 42.2847 91.032 40.9502 91.032C39.4674 91.032 38.6667 92.2331 38.5481 94.6352L34.4555 94.1459C34.6335 92.2479 35.2118 90.8541 36.1904 89.9644C37.1691 89.0451 38.8001 88.5854 41.0837 88.5854C45.621 88.5854 47.8897 90.4389 47.8897 94.1459V105H44.5979L43.3523 103.132ZM38.1477 100.73C38.1477 102.123 38.9039 102.82 40.4164 102.82C41.2171 102.82 42.0623 102.346 42.952 101.397V97.4377L40.9502 97.8381C39.0819 98.2533 38.1477 99.2171 38.1477 100.73ZM58.6661 91.032C57.7468 91.032 57.1092 91.462 56.7533 92.3221C56.3974 93.1524 56.2195 94.7094 56.2195 96.9929C56.2195 99.2467 56.3974 100.804 56.7533 101.664C57.1388 102.524 57.7764 102.954 58.6661 102.954C60.1489 102.954 60.9052 101.619 60.9348 98.9502L65.0718 99.1281C64.9532 101.234 64.3897 102.805 63.3814 103.843C62.4028 104.881 60.742 105.4 58.3992 105.4C56.9461 105.4 55.7302 105.178 54.7515 104.733C52.4384 103.695 51.2818 101.115 51.2818 96.9929C51.2818 94.5018 51.697 92.5445 52.5273 91.121C53.5356 89.4306 55.4929 88.5854 58.3992 88.5854C60.7124 88.5854 62.3583 89.0747 63.3369 90.0534C64.3452 91.032 64.9087 92.5297 65.0273 94.5463L60.9348 94.9911C60.9052 92.3517 60.1489 91.032 58.6661 91.032ZM78.0127 105L73.9201 98.5943L73.7422 98.8167H73.6977V105H68.7155V84.048L73.6977 83.4253V95.9253L80.0589 88.9858H82.8614L76.945 95.3915L83.3507 105H78.0127ZM90.7344 105H85.7077V84.5374H90.7344V105ZM103.739 102.198L104.406 104.422C103.19 105.074 101.826 105.4 100.313 105.4C98.8306 105.4 97.6888 105 96.8881 104.199C96.1764 103.488 95.8205 102.138 95.8205 100.151V91.5214H93.4184V88.9858H95.8205V86.8061L100.803 85.1157V88.9858H103.828V91.5214H100.803V101.13C100.803 102.168 101.188 102.687 101.959 102.687C102.434 102.687 103.027 102.524 103.739 102.198Z" fill="black"/>
</svg>
