<svg width="222" height="93" viewBox="0 0 222 93" fill="none" xmlns="http://www.w3.org/2000/svg">
<path d="M68.0463 28.3634H0C4.40827 11.1645 29.9011 7.64009 42.0964 8.02772H108.861C107.682 24.2247 81.16 28.3336 68.0463 28.3634Z" fill="#7C3BED"/>
<path d="M40.8951 56.2834H108.861C104.458 39.0845 78.9955 35.56 66.8144 35.9476H0.128204C1.30577 52.1447 27.7968 56.2536 40.8951 56.2834Z" fill="#7C3BED"/>
<path d="M68.0463 84.2028H0C4.40827 67.0039 29.9011 63.4794 42.0964 63.8671H108.861C107.682 80.0641 81.16 84.173 68.0463 84.2028Z" fill="#7C3BED"/>
<path d="M122.24 43.4093C122.24 39.2278 124.702 37.137 129.625 37.137C131.938 37.137 133.702 37.656 134.918 38.6939C136.164 39.7319 136.92 41.3333 137.187 43.4982L133.183 44.0765C133.124 42.5047 132.783 41.2888 132.16 40.4288C131.537 39.5688 130.692 39.1388 129.625 39.1388C128.557 39.1388 127.727 39.4205 127.134 39.984C126.54 40.5475 126.244 41.3037 126.244 42.2527C126.244 43.172 126.511 43.8393 127.045 44.2544C127.578 44.6696 128.646 45.07 130.247 45.4555L131.938 45.9004C133.865 46.3452 135.244 47.0569 136.075 48.0356C136.905 48.9846 137.32 50.4229 137.32 52.3505C137.32 54.2485 136.668 55.7313 135.363 56.7989C134.058 57.8665 132.16 58.4004 129.669 58.4004C127.208 58.4004 125.339 57.8814 124.064 56.8434C122.789 55.8055 122.033 54.204 121.795 52.0391L125.799 51.4164C126.036 54.7378 127.326 56.3986 129.669 56.3986C130.796 56.3986 131.671 56.1168 132.294 55.5534C132.946 54.9899 133.272 54.2337 133.272 53.2847C133.272 52.3357 132.991 51.6684 132.427 51.2829C131.864 50.8677 130.737 50.4674 129.046 50.0819L127.578 49.7705C125.68 49.3553 124.316 48.6584 123.486 47.6797C122.656 46.7011 122.24 45.2776 122.24 43.4093ZM148.92 55.1975L149.588 57.4217C148.372 58.0741 147.007 58.4004 145.495 58.4004C144.012 58.4004 142.87 58 142.07 57.1993C141.358 56.4875 141.002 55.1382 141.002 53.1512V44.5214H138.6V41.9858H141.002V39.8061L145.984 38.1157V41.9858H149.009V44.5214H145.984V54.1299C145.984 55.1679 146.37 55.6868 147.141 55.6868C147.615 55.6868 148.209 55.5237 148.92 55.1975ZM160.214 56.1317C158.968 57.6441 157.307 58.4004 155.231 58.4004C153.838 58.4004 152.711 58 151.851 57.1993C151.02 56.3689 150.605 55.2568 150.605 53.863C150.605 52.4692 151.094 51.4164 152.073 50.7046C153.052 49.9632 154.712 49.3849 157.055 48.9698L159.813 48.4359V46.8345C159.813 44.9662 159.146 44.032 157.812 44.032C156.329 44.032 155.528 45.2331 155.409 47.6352L151.317 47.1459C151.495 45.2479 152.073 43.8541 153.052 42.9644C154.03 42.0451 155.661 41.5854 157.945 41.5854C162.482 41.5854 164.751 43.4389 164.751 47.1459V58H161.459L160.214 56.1317ZM155.009 53.7295C155.009 55.1234 155.765 55.8203 157.278 55.8203C158.078 55.8203 158.924 55.3458 159.813 54.3968V50.4377L157.812 50.8381C155.943 51.2533 155.009 52.2171 155.009 53.7295ZM175.527 44.032C174.608 44.032 173.971 44.462 173.615 45.3221C173.259 46.1524 173.081 47.7094 173.081 49.9929C173.081 52.2467 173.259 53.8037 173.615 54.6637C174 55.5237 174.638 55.9537 175.527 55.9537C177.01 55.9537 177.766 54.6192 177.796 51.9502L181.933 52.1281C181.815 54.2337 181.251 55.8055 180.243 56.8434C179.264 57.8814 177.603 58.4004 175.261 58.4004C173.807 58.4004 172.592 58.1779 171.613 57.7331C169.3 56.6951 168.143 54.1151 168.143 49.9929C168.143 47.5018 168.558 45.5445 169.389 44.121C170.397 42.4306 172.354 41.5854 175.261 41.5854C177.574 41.5854 179.22 42.0747 180.198 43.0534C181.207 44.032 181.77 45.5297 181.889 47.5463L177.796 47.9911C177.766 45.3517 177.01 44.032 175.527 44.032ZM194.874 58L190.781 51.5943L190.604 51.8167H190.559V58H185.577V37.048L190.559 36.4253V48.9253L196.92 41.9858H199.723L193.806 48.3915L200.212 58H194.874ZM207.596 58H202.569V37.5374H207.596V58ZM220.6 55.1975L221.267 57.4217C220.051 58.0741 218.687 58.4004 217.175 58.4004C215.692 58.4004 214.55 58 213.749 57.1993C213.038 56.4875 212.682 55.1382 212.682 53.1512V44.5214H210.28V41.9858H212.682V39.8061L217.664 38.1157V41.9858H220.689V44.5214H217.664V54.1299C217.664 55.1679 218.05 55.6868 218.821 55.6868C219.295 55.6868 219.888 55.5237 220.6 55.1975Z" fill="#7C3BED"/>
</svg>
